<?xml version="1.0" encoding="utf-8" ?><svg xmlns="http://www.w3.org/2000/svg" xmlns:xlink="http://www.w3.org/1999/xlink" width="4096" height="4096" viewBox="0 0 4096 4096"><path fill="#C4C4C4" d="M1259.06 0L2863.44 0C2891.35 5.3415 2932.53 4.47713 2961.61 5.78575C3010.49 7.7697 3059.27 11.5497 3107.87 17.1182C3435.36 55.0035 3686.16 160.669 3885.83 433.381C4069.8 684.657 4080.32 955.609 4089.73 1256C4090.33 1272.48 4090.73 1353.27 4096 1362.43L4096 1597.02C4087.53 1601.28 4088.89 1598.96 4086.13 1605.85L4086.86 1608.4C4088.94 1615.95 4090.19 1618.04 4088.67 1625.3C4081.44 1631.24 4079.79 1633.47 4080.1 1643.11C4080.92 1667.99 4080.45 1695.98 4082.74 1720.55C4087 1708.04 4089 1695.58 4096 1685.44L4096 2765.46C4089.99 2781.2 4092.18 2859.37 4091.67 2882.43C4090.65 2927.65 4088.77 2972.84 4086.05 3017.99C4077.46 3141.29 4064.97 3253.6 4030.28 3372.28C3958 3618.25 3791.01 3825.46 3566.02 3948.37C3396.38 4041.11 3202.68 4074.71 3011.53 4086.88C2979.26 4089.06 2946.96 4090.65 2914.63 4091.65C2893.42 4092.22 2845.18 4092.27 2827.03 4096L1338.42 4096C1320.34 4091.7 1259.89 4091.99 1238.84 4091.61C1202.34 4090.72 1165.85 4089.46 1129.38 4087.84C781.611 4073.39 490.681 3999.63 257.403 3727.17C80.9867 3521.13 28.0959 3308.74 12.1353 3042.34C8.94561 2985.11 6.49324 2927.84 4.77878 2870.54C4.17207 2844.33 5.99907 2775.94 0 2754.99L0 1322.54C3.0752 1306.27 3.32223 1260.55 3.79842 1242.05C4.8464 1196.3 6.5594 1150.56 8.93686 1104.85C23.259 851.38 71.1259 609.141 230.122 406.581C428.371 154.011 677.713 48.0534 990.107 16.6171C1043.6 11.0988 1097.25 7.17948 1150.98 4.86449C1184.18 3.57111 1224.34 4.70068 1256.64 0.346298L1259.06 0ZM2576.14 4070.56C3015.72 4067.37 3443.08 4098.59 3776.7 3759.4C3896.03 3638.25 3980.4 3487.1 4020.9 3321.94C4066.53 3141.01 4067.3 2877.07 4067.5 2689.99L4067.58 2253.89C4066.9 1933.67 4070.81 1610.12 4067.45 1290.58C4066.03 1221.4 4063.11 1152.27 4058.67 1083.23C4039.9 781.627 3984.39 550.429 3762.71 327.149C3658.93 222.625 3522.15 136.715 3381.12 94.0517C3219.87 45.2755 3046.44 33.9932 2878.86 28.6495C2704.68 23.0951 2530.39 24.717 2356.02 24.789L1523.7 25C1408.26 24.6725 1292.83 26.4821 1177.46 30.4278C844.087 41.5149 573.087 85.2998 329.103 331.344C51.7644 611.023 41.026 916.506 30.8651 1287.99C26.9792 1472.91 25.5722 1657.87 26.6446 1842.82L26.0704 2675.75C26.4725 2782.77 32.4285 2890.58 36.0415 2996.66C46.4972 3303.64 108.215 3543.01 327.463 3766.84C604.543 4049.71 949.346 4062.39 1321.78 4069.2C1459.69 4071.95 1597.62 4072.88 1735.56 4072.01L2504.59 4071.01L2576.14 4070.56Z"/><path fill="#025ADD" d="M1098.81 1577.38C1121.78 1544.18 1177.14 1588.72 1202.21 1603.33L1293.91 1655.58L1426.45 1731.06C1459.97 1750.15 1503.76 1773.57 1532.26 1798.43C1553.25 1816.74 1547.69 1898.06 1547.62 1925.78L1547.31 2068.31L1547.23 2578.09L1547 2686.55C1546.83 2716.21 1543.6 2758.25 1556.15 2785.91C1561.57 2797.86 1585.52 2811.49 1597.27 2818.85C1613.71 2828.06 1630.32 2837.16 1646.32 2847.1C1674.34 2861.06 1706.19 2879.35 1733.15 2895.53C1799.44 2935.3 1868.49 2972.21 1933.77 3013.27C1969.51 3035.75 1948.66 3064.75 1921.35 3080.86C1889.1 3101.7 1856.16 3120.11 1823 3139.13L1664.21 3230.14C1646.19 3240.49 1623.57 3253.48 1606.32 3264.36C1537.9 3307.51 1536.76 3305.04 1469.48 3267.92C1431.56 3246.94 1393.91 3225.47 1356.54 3203.52C1342.51 3196.73 1310.78 3176.44 1297.98 3167.18C1290.31 3163.75 1265.24 3148.13 1256.68 3143.09C1240.65 3136.37 1205.14 3114.07 1189.76 3104.53C1182.16 3101.15 1133.49 3074.02 1127.77 3069.45C1113.09 3061.26 1100.34 3050.19 1094.63 3033.88C1085.34 3007.35 1090.05 2800.89 1090.12 2755.74L1091.31 2198.49L1091.26 1814.38C1091.12 1746.26 1090.68 1677.88 1091.01 1609.75C1091.08 1595.92 1092.92 1589.98 1098.81 1577.38Z"/><path fill="#0251C5" d="M1127.77 3069.45C1113.09 3061.26 1100.34 3050.19 1094.63 3033.88C1085.34 3007.35 1090.05 2800.89 1090.12 2755.74L1091.31 2198.49L1091.26 1814.38C1091.12 1746.26 1090.68 1677.88 1091.01 1609.75C1091.08 1595.92 1092.92 1589.98 1098.81 1577.38C1095.08 1661.97 1097.08 1755.46 1096.99 1841.07L1097.9 2350.92L1098.28 2801.78C1098.32 2861.95 1098.06 2922.21 1096.46 2982.39C1095.98 3000.37 1103.35 3025.57 1109.78 3042.34C1114.78 2975.35 1113.92 2915.6 1113.79 2848.44L1113.73 2637.82L1114.2 1929.23C1114.09 1873.92 1114.09 1818.5 1113.52 1763.2C1112.89 1700.95 1104.72 1635.01 1118.56 1573.87C1122.87 1626.31 1118.17 1656.42 1117.75 1706.81L1118.13 1933.19L1118.45 2734.73L1118.22 2899.22C1118.14 2955.8 1114.84 3014.52 1127.77 3069.45Z"/><path fill="#0251C5" d="M1189.76 3104.53C1211.41 3104.91 1211.73 3115.88 1231.85 3106.54C1234.94 3105.11 1236.88 3105.19 1240.09 3105.64C1249.82 3115.59 1239.71 3122.49 1247.52 3131C1252.66 3136.61 1253.74 3134.36 1256.68 3143.09C1240.65 3136.37 1205.14 3114.07 1189.76 3104.53Z"/><path fill="#0251C5" d="M1297.98 3167.18C1311.58 3167.95 1333.69 3165.27 1341.64 3179.73C1346.15 3187.94 1353.21 3195.49 1356.54 3203.52C1342.51 3196.73 1310.78 3176.44 1297.98 3167.18Z"/><path fill="#0251C5" d="M1597.27 2818.85C1613.71 2828.06 1630.32 2837.16 1646.32 2847.1C1635.32 2846.19 1613.61 2847.34 1606.51 2845.56C1600.39 2837.58 1608.24 2837.32 1597.27 2818.85Z"/><path fill="#025ADD" d="M3179.59 1824.44C3202.51 1810.29 3222.64 1793.1 3247.28 1812.84C3250.61 1818.29 3254.22 1824.04 3254.53 1830.48C3256.12 1862.9 3255.84 1896.57 3255.95 1928.99L3255.99 2118.06L3255.84 2228.68C3255.82 2243.22 3256.48 2277.21 3254.18 2289.7C3248.36 2307.42 3244.01 2315.66 3228.21 2325.66L3208.22 2336.82C3193.96 2345.69 3178.2 2356.05 3163.29 2363.38C3125.42 2386.94 3081.87 2410.27 3042.88 2432.77L2768.04 2591.51C2757.11 2598.41 2727.31 2616.41 2715.89 2621.47C2684.56 2641.84 2468.34 2759.2 2459.59 2770.39C2430.07 2785.43 2418.8 2797.19 2385.96 2802.6C2365.79 2798.23 2314.19 2766.24 2296.27 2753.26C2277.3 2744.25 2250.41 2727.83 2231.51 2716.91C2218.18 2711.11 2163.63 2677.68 2147.32 2668.19L2044.51 2608.46C2028 2598.96 1967.48 2565.88 1959.65 2554.7C1941.11 2528.26 1947.59 2404.05 1947.59 2372.15L1947.61 2078.71C1957.41 2060.43 1962.85 2055.79 1983.7 2054.57C2004.49 2058.84 2018.18 2068.5 2036.22 2079.42L2262.36 2209.93C2298.17 2230.45 2335.31 2254.04 2373.41 2269.83C2384.59 2274.46 2398.45 2272.21 2409.76 2268.53C2417.5 2262.79 2430.66 2255.4 2439.61 2249.25L2451.19 2243.93C2474.91 2229.32 2501.69 2216.42 2526.42 2201.27C2550.55 2189.65 2576.75 2171.03 2599.69 2160.51C2611.95 2151.67 2646.36 2132.79 2660.85 2124.33L2851.54 2015.23L2879.33 1998.64L3071.86 1886.84C3083.53 1879.64 3095.38 1872.75 3107.4 1866.17C3120.66 1857.37 3165.98 1830.77 3179.59 1824.44Z"/><path fill="#025ADD" d="M3247.28 1812.84C3250.61 1818.29 3254.22 1824.04 3254.53 1830.48C3256.12 1862.9 3255.84 1896.57 3255.95 1928.99L3255.99 2118.06L3255.84 2228.68C3255.82 2243.22 3256.48 2277.21 3254.18 2289.7L3245.43 2289.04C3229.77 2267 3236.27 1871.39 3238.98 1815.3L3247.28 1812.84Z"/><path fill="#0251C5" d="M3179.59 1824.44C3202.51 1810.29 3222.64 1793.1 3247.28 1812.84L3238.98 1815.3C3236.27 1871.39 3229.77 2267 3245.43 2289.04L3254.18 2289.7C3248.36 2307.42 3244.01 2315.66 3228.21 2325.66C3232.96 2306.3 3232.71 2198.12 3232.39 2170.87C3231 2056.19 3234.5 1936.21 3230.8 1822.04C3213.8 1822.72 3196.57 1825.11 3179.59 1824.44Z"/><path fill="#0251C5" d="M2231.51 2716.91L2299.74 2722.52C2293.67 2731.32 2291.52 2731.58 2290.56 2741.45L2296.27 2753.26C2277.3 2744.25 2250.41 2727.83 2231.51 2716.91Z"/><path fill="#0251C5" d="M2660.85 2124.33C2662.93 2140.25 2682.84 2136.94 2697.35 2140.18C2690.25 2141.04 2653.9 2144.04 2650.59 2144.92C2623.26 2152.21 2631.85 2162.14 2599.69 2160.51C2611.95 2151.67 2646.36 2132.79 2660.85 2124.33Z"/><path fill="#0251C5" d="M1983.7 2054.57C2004.49 2058.84 2018.18 2068.5 2036.22 2079.42C2020.59 2077.51 1972.48 2079.42 1965.05 2076.36C1973.33 2073.38 1986.58 2069.99 1989.76 2061.52L1983.7 2054.57Z"/><path fill="#0251C5" d="M2715.89 2621.47L2719.08 2612.71C2717.46 2604.41 2717.19 2603.69 2718.07 2595.43C2726.14 2588.08 2755.03 2591.19 2768.04 2591.51C2757.11 2598.41 2727.31 2616.41 2715.89 2621.47Z"/><path fill="#0251C5" d="M2451.19 2243.93L2450.64 2253.01C2454.97 2256.69 2460.49 2261.99 2460.51 2268.02C2448.61 2277.2 2426.36 2266.5 2409.76 2268.53C2417.5 2262.79 2430.66 2255.4 2439.61 2249.25L2451.19 2243.93Z"/><path fill="#0251C5" d="M3163.29 2363.38C3165.14 2359.77 3166.39 2357.05 3167.97 2353.31C3165.34 2348.39 3163.34 2344.3 3160.98 2339.23L3162.8 2336.79C3172.97 2335.32 3193.85 2337.56 3208.22 2336.82C3193.96 2345.69 3178.2 2356.05 3163.29 2363.38Z"/><path fill="#0251C5" d="M3071.86 1886.84C3083.53 1879.64 3095.38 1872.75 3107.4 1866.17C3105.09 1874.25 3103.85 1873.18 3106.82 1878.54C3115.31 1882.72 3123.47 1881.2 3134.67 1883.97C3109.62 1889.27 3097.61 1888 3071.86 1886.84Z"/><path fill="#0251C5" d="M2879.33 1998.64L2880.5 2005.62C2888.26 2009.97 2894.62 2006.65 2906.46 2011.46C2901.04 2019.16 2864.32 2013.27 2851.54 2015.23L2879.33 1998.64Z"/><path fill="#025ADD" d="M1453.82 847.195C1514.69 807.516 1523.83 797.759 1588.34 835.256C1662.15 875.665 1733.24 919.967 1806.04 961.786C1989.92 1066.19 2173.27 1171.53 2356.07 1277.82C2443.19 1326.83 2529.77 1376.77 2615.81 1427.64C2625.95 1433.56 2683.47 1464.98 2689.77 1470.58C2706.34 1479.24 2719.94 1486.82 2735.9 1496.53C2769.75 1515.23 2849.88 1551.26 2789.8 1592.98C2774.58 1603.54 2740.18 1623.69 2724.02 1631.42C2709.63 1640.85 2694.94 1649.12 2680.04 1657.68C2669.24 1663.97 2627.41 1689.23 2618.37 1692.92C2595.48 1707.05 2565.2 1724.99 2541.29 1737.16C2504.28 1761.48 2436.18 1805.19 2393.85 1810.39C2381.18 1811.95 2366.8 1804.15 2355.58 1797.74C2285 1757.44 2214.39 1716.82 2143.92 1676.35L1598.45 1362.28L1305.45 1193.93C1268.31 1172.86 1150.86 1110 1121.89 1084.19C1120.45 1077.64 1116.84 1061.46 1119.47 1055.71C1132.24 1027.71 1214.71 987.143 1240.11 972.886C1258.07 960.934 1287.8 944.861 1307.21 933.553C1355.6 906.634 1406.18 875.829 1453.82 847.195Z"/><path fill="#0251C5" d="M1453.82 847.195C1514.69 807.516 1523.83 797.759 1588.34 835.256C1560.15 832.786 1527.05 828.936 1499.29 835.102C1480.55 839.265 1476.39 846.666 1453.82 847.195Z"/><path fill="#0251C5" d="M2680.04 1657.68L2683.14 1647.87L2681.37 1645.28C2674.85 1645.14 2668.32 1644.97 2661.8 1644.76C2656.08 1641.42 2658.26 1643.67 2655.15 1637.68L2657.22 1634.44C2666.82 1629.67 2710.65 1631.42 2724.02 1631.42C2709.63 1640.85 2694.94 1649.12 2680.04 1657.68Z"/><path fill="#0251C5" d="M2541.29 1737.16C2546.35 1723.15 2558.73 1721.81 2572.19 1710.74L2572.31 1707.36C2568.41 1705.39 2564.53 1703.38 2560.66 1701.35C2564.68 1697.05 2609.52 1693.26 2618.37 1692.92C2595.48 1707.05 2565.2 1724.99 2541.29 1737.16Z"/><path fill="#0251C5" d="M1307.21 933.553C1307.05 940.804 1306.8 947.118 1306.28 954.352C1295.6 961.3 1252.36 973.82 1240.11 972.886C1258.07 960.934 1287.8 944.861 1307.21 933.553Z"/><path fill="#0251C5" d="M2689.77 1470.58C2706.34 1479.24 2719.94 1486.82 2735.9 1496.53C2719.49 1495.39 2700.57 1506.65 2688.88 1497.67L2688.3 1493.12C2693.2 1488.77 2695.27 1489.93 2703.17 1488.86L2702.66 1487.46L2694.9 1485L2689.77 1470.58Z"/><path fill="#FCFEFF" fill-opacity="0.015686275" d="M2439.61 2249.25C2454.16 2213.74 2490.91 2201.17 2526.42 2201.27C2501.69 2216.42 2474.91 2229.32 2451.19 2243.93L2439.61 2249.25Z"/><path fill="#FCFEFF" fill-opacity="0.019607844" d="M2385.96 2802.6C2418.8 2797.19 2430.07 2785.43 2459.59 2770.39C2454.71 2806.06 2416.11 2807.35 2388.63 2804.5L2385.96 2802.6Z"/><path fill="#FCFEFF" fill-opacity="0.015686275" d="M4082.74 1720.55C4080.45 1695.98 4080.92 1667.99 4080.1 1643.11C4079.79 1633.47 4081.44 1631.24 4088.67 1625.3C4090.19 1618.04 4088.94 1615.95 4086.86 1608.4L4086.13 1605.85C4088.89 1598.96 4087.53 1601.28 4096 1597.02L4096 1685.44C4089 1695.58 4087 1708.04 4082.74 1720.55Z"/></svg>